<svg width="22" height="21" viewBox="0 0 22 21" fill="none" xmlns="http://www.w3.org/2000/svg">
<path fill-rule="evenodd" clip-rule="evenodd" d="M8.58115 3.91773e-06L13.4423 1.03032e-07C14.6996 -0.000307286 15.8621 0.687202 16.342 1.88101C16.5511 2.40116 16.7017 2.95703 17.3811 2.99818C17.7184 3.0186 18.0571 2.98607 18.3944 3.01949C20.2917 3.20747 21.7925 4.70836 21.9805 6.60562C22.0012 6.81473 22 7.05084 22 7.37723V15.2413C22 16.0463 22 16.7106 21.9558 17.2518C21.84 18.6688 21.1118 19.9038 19.816 20.564C19.3306 20.8113 18.8139 20.9099 18.2518 20.9558C17.7106 21 17.0463 21 16.2413 21H5.75869C4.95373 21 4.28938 21 3.74819 20.9558C3.18609 20.9099 2.66939 20.8113 2.18405 20.564C0.888255 19.9038 0.159982 18.6688 0.0442074 17.2518C-9.93162e-06 16.7106 5.57839e-07 16.0463 1.33132e-05 15.2413C1.34732e-05 12.6027 0.000542182 9.964 6.75672e-06 7.32535C-5.48745e-05 7.02553 -0.000100413 6.80348 0.0195037 6.60562C0.207482 4.70836 1.70837 3.20747 3.60563 3.01949C3.94288 2.98608 4.28168 3.0186 4.61895 2.99818C5.2981 2.95704 5.44885 2.40135 5.65804 1.88101C6.14362 0.67313 7.31476 3.91773e-06 8.58115 3.91773e-06ZM8.58115 2C8.12606 2 7.69723 2.17049 7.5137 2.627C7.01014 3.87963 6.22225 4.90474 4.73985 4.99452C4.42787 5.01341 4.11423 4.97889 3.80282 5.00975C2.85419 5.10374 2.10375 5.85418 2.00976 6.80281C2.00124 6.88877 2.00001 7.00297 2.00001 7.37723V15.2C2.00001 16.0566 2.00079 16.6389 2.03757 17.089C2.09747 17.8222 2.40749 18.4332 3.09203 18.782C3.24843 18.8617 3.47264 18.9266 3.91105 18.9625C4.36114 18.9992 4.94343 19 5.80001 19H16.2C17.0566 19 17.6389 18.9992 18.089 18.9625C18.5274 18.9266 18.7516 18.8617 18.908 18.782C19.5925 18.4332 19.9026 17.8222 19.9625 17.089C19.9992 16.6389 20 16.0566 20 15.2V7.37723C20 7.00297 19.9988 6.88877 19.9903 6.80281C19.8963 5.85418 19.1458 5.10374 18.1972 5.00975C17.8864 4.97896 17.5718 5.01339 17.2602 4.99452C15.7777 4.90473 14.9897 3.87919 14.4863 2.627C14.3028 2.17049 13.874 2 13.4189 2H8.58115ZM11 8.5C9.34316 8.5 8.00001 9.84315 8.00001 11.5C8.00001 13.1569 9.34316 14.5 11 14.5C12.6569 14.5 14 13.1569 14 11.5C14 9.84315 12.6569 8.5 11 8.5ZM6.00001 11.5C6.00001 8.73858 8.23859 6.5 11 6.5C13.7614 6.5 16 8.73858 16 11.5C16 14.2614 13.7614 16.5 11 16.5C8.23859 16.5 6.00001 14.2614 6.00001 11.5Z" fill="#E1E3E6"/>
</svg>
